<?xml version="1.0" encoding="UTF-8"?> <svg xmlns="http://www.w3.org/2000/svg" id="Layer_1" height="512" viewBox="0 0 512 512" width="512" data-name="Layer 1"><path d="m125.779 381.013a7.921 7.921 0 0 0 .183.831l33.338 119.864a13.924 13.924 0 0 0 13.542 10.292h132.213a13.924 13.924 0 0 0 13.545-10.292l33.249-119.555a8.074 8.074 0 0 0 .215-1.09 169.057 169.057 0 0 0 48.592-76.946 7.981 7.981 0 0 0 1.418.133h11.063a28.657 28.657 0 0 0 28.625-28.625v-22.5a28.658 28.658 0 0 0 -28.626-28.625h-8.436a168.687 168.687 0 0 0 -52.643-93.572 8.087 8.087 0 0 0 -.22-1.133l-33.237-119.502a13.926 13.926 0 0 0 -13.545-10.293h-132.213a13.922 13.922 0 0 0 -13.542 10.292l-33.582 120.75a168.466 168.466 0 0 0 .063 249.971zm177.8 114.987h-129.262l-27.452-98.708a168.344 168.344 0 0 0 184.166 0zm109.557-255.5a12.64 12.64 0 0 1 12.625 12.626v22.5a12.639 12.639 0 0 1 -12.625 12.625h-8.584a168.871 168.871 0 0 0 3.1-32.25c0-5.226-.251-10.394-.719-15.5zm-238.819-224.5h129.262l27.452 98.707a168.346 168.346 0 0 0 -184.166 0zm64.631 87.291c84.2 0 152.709 68.5 152.709 152.709s-68.5 152.709-152.709 152.709-152.709-68.509-152.709-152.709 68.505-152.709 152.709-152.709zm-5.671 239.243a8 8 0 0 0 11.315 0l58.968-58.968a49.753 49.753 0 0 0 0-70.281c-9.366-9.366-22.107-13.838-35.859-12.6a56.238 56.238 0 0 0 -28.766 11.491 56.244 56.244 0 0 0 -28.768-11.491c-13.759-1.237-26.493 3.236-35.858 12.6a50.236 50.236 0 0 0 -14.526 35.654 48.473 48.473 0 0 0 14.562 34.661zm-47.654-117.934a27.588 27.588 0 0 1 19.971-8.071c10.088 0 20.473 4.7 27.684 11.915a8 8 0 0 0 11.314 0 40.625 40.625 0 0 1 24.544-11.824c6.343-.567 15.482.353 23.109 7.98a33.734 33.734 0 0 1 0 47.655l-53.31 53.311-53.309-53.309-.072-.071a32.593 32.593 0 0 1 -9.772-23.346 34.143 34.143 0 0 1 9.841-24.24z"></path></svg> 