<svg xmlns="http://www.w3.org/2000/svg" height="512" viewBox="0 0 32 32" width="512" data-name="Layer 1"><path d="m21.33 27.73a1.07 1.07 0 0 1 -1.07-1.07v-2.13a3.2 3.2 0 0 0 -3.2-3.2h-2.13a3.2 3.2 0 0 0 -3.2 3.2v2.13a1.07 1.07 0 1 1 -2.13 0v-2.13a5.33 5.33 0 0 1 5.33-5.33h2.13a5.33 5.33 0 0 1 5.33 5.33v2.13a1.07 1.07 0 0 1 -1.06 1.07z"></path><path d="m25.59 32h-19.19a5.34 5.34 0 0 1 -5.33-5.33v-15.43a5.3 5.3 0 0 1 2.54-4.54l9.6-5.91a5.31 5.31 0 0 1 5.59 0l9.6 5.91a5.3 5.3 0 0 1 2.54 4.54v15.43a5.34 5.34 0 0 1 -5.35 5.33zm-9.59-29.87a3.2 3.2 0 0 0 -1.68.48l-9.59 5.91a3.18 3.18 0 0 0 -1.52 2.73v15.42a3.2 3.2 0 0 0 3.2 3.2h19.2a3.2 3.2 0 0 0 3.2-3.2v-15.43a3.18 3.18 0 0 0 -1.52-2.73l-9.6-5.91a3.19 3.19 0 0 0 -1.69-.47z"></path></svg> 