<?xml version="1.0" encoding="UTF-8"?> <svg xmlns="http://www.w3.org/2000/svg" id="Layer_1" height="512" viewBox="0 0 512 512" width="512" data-name="Layer 1"><path d="m33 406.429h31.421l-20.355 41.319a18.6 18.6 0 0 0 32.141 18.558l39.346-58.835a8.1 8.1 0 0 0 .579-1.042h279.736a8.1 8.1 0 0 0 .579 1.042l39.346 58.834a18.6 18.6 0 0 0 32.143-18.556l-20.357-41.32h31.421a33.038 33.038 0 0 0 33-33v-303a33.038 33.038 0 0 0 -33-33h-446a33.038 33.038 0 0 0 -33 33v303a33.038 33.038 0 0 0 33 33zm29.906 50.983a2.6 2.6 0 0 1 -4.487-2.593l23.775-48.26c.021-.043.036-.087.056-.13h14.75zm366.9-50.853 23.776 48.26a2.6 2.6 0 0 1 -4.488 2.592l-34.094-50.982h14.75c.02.043.035.087.056.13zm49.194-16.13h-446a17.019 17.019 0 0 1 -17-17v-7.5h480v7.5a17.019 17.019 0 0 1 -17 17zm-446-336.999h446a17.019 17.019 0 0 1 17 17v279.5h-480v-279.5a17.019 17.019 0 0 1 17-17zm231.025 324.749a8.013 8.013 0 1 1 -8.05-8h.05a8 8 0 0 1 8 8zm-179.207-252.625a8 8 0 0 1 8-8h139.5a8 8 0 0 1 0 16h-61.751v144.251a8 8 0 0 1 -16 0v-144.251h-61.749a8 8 0 0 1 -8-8zm182.849 3.555a8 8 0 0 1 14.455-6.86l64.917 136.772 64.916-136.772a8 8 0 0 1 14.455 6.86l-72.143 152a8 8 0 0 1 -14.455 0z"></path></svg> 